<svg width="13" height="13" viewBox="0 0 13 13" fill="none" xmlns="http://www.w3.org/2000/svg">
<g clip-path="url(#clip0)">
<path d="M12.6618 11.0532L7.5643 5.95562L1.60867 0H1.14324L1.0482 0.24149C0.797365 0.878896 0.690191 1.53083 0.738306 2.12672C0.79315 2.80597 1.05119 3.39404 1.48459 3.82743L6.13386 8.47671L6.7471 7.86348L11.0454 12.6697C11.4729 13.0973 12.2089 13.1227 12.6618 12.6697C13.1076 12.224 13.1076 11.4989 12.6618 11.0532Z" fill="black"/>
<path d="M3.97941 7.3999L0.338118 11.0412C-0.107538 11.4869 -0.107538 12.212 0.338118 12.6577C0.761481 13.0811 1.49387 13.1184 1.95461 12.6577L5.59593 9.01637L3.97941 7.3999Z" fill="black"/>
<path d="M12.4478 2.16464L10.3823 4.23016L9.84343 3.69132L11.909 1.62577L11.3701 1.08693L9.30461 3.15246L8.76577 2.61362L10.8313 0.548092L10.2925 0.00927734L7.59831 2.70348C7.26872 3.03307 7.07191 3.47071 7.04408 3.93581C7.03705 4.05365 7.01034 4.16956 6.96603 4.2798L8.71618 6.02995C8.82643 5.9856 8.94236 5.95891 9.06018 5.95188C9.52528 5.92413 9.96291 5.72727 10.2925 5.39768L12.9867 2.7035L12.4478 2.16464Z" fill="black"/>
</g>
<defs>
<clipPath id="clip0">
<rect width="13" height="13" fill="white"/>
</clipPath>
</defs>
</svg>
